<?xml version="1.0" encoding="utf-8"?>
<!-- Generator: Adobe Illustrator 17.0.0, SVG Export Plug-In . SVG Version: 6.00 Build 0)  -->
<!DOCTYPE svg PUBLIC "-//W3C//DTD SVG 1.1//EN" "http://www.w3.org/Graphics/SVG/1.1/DTD/svg11.dtd">
<svg version="1.1" id="Layer_1" xmlns="http://www.w3.org/2000/svg" xmlns:xlink="http://www.w3.org/1999/xlink" x="0px" y="0px"
	 width="176px" height="32.895px" viewBox="0 0 176 32.895" enable-background="new 0 0 176 32.895" xml:space="preserve">
<g>
	<path fill="#FFFFFF" d="M70.204,8.752h9.074v1.421h-7.493v5.866h6.118v1.421h-6.118v5.981h7.905v1.421h-9.486V8.752z"/>
	<path fill="#FFFFFF" d="M92.199,21.858c0,0,1.673,1.765,4.216,1.765c1.765,0,3.208-1.054,3.208-2.796
		c0-4.056-8.043-3.025-8.043-8.02c0-2.314,2.039-4.331,5.018-4.331c2.795,0,4.308,1.558,4.308,1.558l-0.779,1.329
		c0,0-1.421-1.375-3.529-1.375c-2.062,0-3.391,1.352-3.391,2.773c0,3.826,8.043,2.727,8.043,8.02c0,2.406-1.856,4.354-4.881,4.354
		c-3.3,0-5.11-2.062-5.11-2.062L92.199,21.858z"/>
	<path fill="#FFFFFF" d="M120.953,8.477c3.849,0,5.797,2.085,5.797,2.085l-0.848,1.169c0,0-1.879-1.787-4.904-1.787
		c-3.781,0-6.485,2.933-6.485,6.737c0,3.849,2.704,6.989,6.531,6.989c3.254,0,5.224-2.154,5.224-2.154l0.917,1.123
		c0,0-2.2,2.498-6.164,2.498c-4.766,0-8.157-3.735-8.157-8.432C112.865,12.028,116.348,8.477,120.953,8.477z"/>
	<path fill="#FFFFFF" d="M139.785,8.752h5.568c2.887,0,4.973,1.879,4.973,4.858c0,3.002-2.085,4.926-4.973,4.926h-3.987v6.324
		h-1.581V8.752z M145.146,17.115c2.154,0,3.552-1.306,3.552-3.506c0-2.177-1.398-3.437-3.529-3.437h-3.804v6.943H145.146z"/>
	<path fill="#FFFFFF" d="M162.65,8.752h5.201c4.835,0,8.089,2.956,8.089,8.042c0,5.133-3.254,8.066-8.089,8.066h-5.201V8.752z
		 M167.691,23.439c3.964,0,6.599-2.337,6.599-6.645c0-4.284-2.658-6.622-6.599-6.622h-3.46v13.267H167.691z"/>
</g>
<g>
	<g>
		<path fill="#FFFFFF" d="M12.88,3.948c-6.913,0-12.628,5.604-12.628,12.517c0,6.913,5.514,12.517,12.427,12.517
			c3.138,0,5.858-1.157,8.111-3.065v6.979h4.506V16.465C25.296,9.552,19.793,3.948,12.88,3.948z M12.658,24.665
			c-4.529,0-8.201-3.672-8.201-8.201s3.672-8.201,8.201-8.201c4.529,0,8.201,3.672,8.201,8.201S17.187,24.665,12.658,24.665z"/>
	</g>
	<g>
		<path fill="#FFFFFF" d="M41.047,28.97c6.913,0,12.606-5.604,12.606-12.517c0-6.913-5.593-12.517-12.506-12.517
			c-3.138,0-5.712,1.157-8.19,3.065V0h-4.281v16.453C28.676,23.366,34.134,28.97,41.047,28.97z M41.225,8.252
			c4.529,0,8.201,3.672,8.201,8.201s-3.672,8.201-8.201,8.201c-4.529,0-8.201-3.672-8.201-8.201S36.696,8.252,41.225,8.252z"/>
	</g>
</g>
</svg>
