<?xml version="1.0" encoding="utf-8"?>
<!-- Generator: Adobe Illustrator 17.0.0, SVG Export Plug-In . SVG Version: 6.00 Build 0)  -->
<!DOCTYPE svg PUBLIC "-//W3C//DTD SVG 1.1//EN" "http://www.w3.org/Graphics/SVG/1.1/DTD/svg11.dtd">
<svg version="1.1" id="Layer_1" xmlns="http://www.w3.org/2000/svg" xmlns:xlink="http://www.w3.org/1999/xlink" x="0px" y="0px"
	 width="20.168px" height="21.665px" viewBox="0 0 20.168 21.665" enable-background="new 0 0 20.168 21.665" xml:space="preserve">
<g>
	<path fill="none" d="M11.469,12.316c0.229-0.208,0.487-0.354,0.752-0.449c1.822-2.063,1.86-5.197-0.035-7.279
		c-2.032-2.233-5.49-2.396-7.723-0.364S2.068,9.714,4.1,11.947c1.796,1.973,4.701,2.323,6.895,0.978
		C11.112,12.705,11.27,12.498,11.469,12.316z"/>
	<path fill="#FFFFFF" d="M19.776,18.505l-4.922-5.409c2.237-3.103,2.082-7.45-0.596-10.392C11.185-0.674,5.956-0.92,2.579,2.153
		c-3.377,3.073-3.623,8.302-0.55,11.679c2.549,2.801,6.578,3.441,9.807,1.826l5.014,5.51c0.63,0.692,1.796,0.657,2.604-0.078
		C20.262,20.354,20.406,19.197,19.776,18.505z M4.1,11.947C2.068,9.714,2.231,6.257,4.464,4.224s5.691-1.869,7.723,0.364
		c1.896,2.083,1.857,5.216,0.035,7.279c-0.266,0.095-0.524,0.241-0.752,0.449c-0.199,0.181-0.358,0.389-0.475,0.609
		C8.802,14.271,5.896,13.92,4.1,11.947z"/>
</g>
</svg>
