<?xml version="1.0" encoding="utf-8"?>
<!-- Generator: Adobe Illustrator 15.0.0, SVG Export Plug-In . SVG Version: 6.00 Build 0)  -->
<!DOCTYPE svg PUBLIC "-//W3C//DTD SVG 1.1//EN" "http://www.w3.org/Graphics/SVG/1.1/DTD/svg11.dtd">
<svg version="1.1" id="Layer_1" xmlns="http://www.w3.org/2000/svg" xmlns:xlink="http://www.w3.org/1999/xlink" x="0px" y="0px"
	 width="72px" height="72px" viewBox="0 0 72 72" enable-background="new 0 0 72 72" xml:space="preserve">
<path d="M34.274,51.576l-7.062-7.033v-7.182c-1.888,3.449-5.822,5.175-9.973,5.175c-9.486,0-15.038-7.385-15.038-15.74
	c0-9.325,6.738-15.686,15.038-15.686c5.392,0,8.679,2.857,9.973,5.229v-4.312h7.062V51.576z M9.263,26.958
	c0,3.665,2.642,9.002,9.001,9.002c3.936,0,6.523-2.049,7.871-4.744c0.7-1.292,1.023-2.695,1.133-4.15
	c0.053-1.401-0.218-2.857-0.81-4.151c-1.24-2.803-3.988-5.229-8.247-5.229c-5.714,0-8.948,4.636-8.948,9.217V26.958z"/>
<g>
	<path d="M34.274,51.576l-7.062-7.033v-7.182c-1.888,3.449-5.822,5.175-9.973,5.175c-9.486,0-15.038-7.385-15.038-15.74
		c0-9.325,6.738-15.686,15.038-15.686c5.392,0,8.679,2.857,9.973,5.229v-4.312h7.062V51.576z M9.263,26.958
		c0,3.665,2.642,9.002,9.001,9.002c3.936,0,6.523-2.049,7.871-4.744c0.7-1.292,1.023-2.695,1.133-4.15
		c0.053-1.401-0.218-2.857-0.81-4.151c-1.24-2.803-3.988-5.229-8.247-5.229c-5.714,0-8.948,4.636-8.948,9.217V26.958z"/>
</g>
<path d="M37.597,11.934h6.755v4.394C46.493,13.307,50.009,11,55.007,11C65.551,11,70,19.952,70,27.257
	c0,8.568-6.097,15.763-14.938,15.763c-5.877,0-9.062-3.021-10.271-4.943v4.009v19.777l-7.194-7.226V11.934z M62.805,26.982
	c0-4.339-3.129-9.282-9.227-9.282c-2.636,0-4.888,1.043-6.535,2.746c-1.593,1.648-2.582,4.01-2.582,6.646
	c0,2.582,0.989,4.888,2.637,6.537c1.647,1.647,3.955,2.691,6.535,2.691c5.492,0,9.172-4.339,9.172-9.282V26.982z"/>
</svg>
