<?xml version="1.0" encoding="utf-8"?>
<!-- Generator: Adobe Illustrator 15.0.0, SVG Export Plug-In . SVG Version: 6.00 Build 0)  -->
<!DOCTYPE svg PUBLIC "-//W3C//DTD SVG 1.1//EN" "http://www.w3.org/Graphics/SVG/1.1/DTD/svg11.dtd">
<svg version="1.1" id="Layer_1" xmlns="http://www.w3.org/2000/svg" xmlns:xlink="http://www.w3.org/1999/xlink" x="0px" y="0px"
	 width="29.25px" height="29px" viewBox="0 0 29.25 29" enable-background="new 0 0 29.25 29" xml:space="preserve">
<path fill-rule="evenodd" clip-rule="evenodd" fill="#BE1E2D" d="M19.398,19.56c0.006,0-0.019-0.028-0.068-0.08
	c0.007,0.031,0.016,0.064,0.016,0.064l-4.877,4.436c0.083,0-11.839-11.286-11.839-11.31c0,0.044,0.38-0.046,0.38-0.046
	c0.679-0.113,2.164-0.922,3.017-2.348c1.462-2.439,4.27-3.526,5.267-3.699c2.463-0.428,3.326,1.712,3.457,1.843
	c0.05,0.049-2.446-1.171-2.469,1.104c0,0-0.187,1.384,2.104,2.269c0.5-0.382,1.001-0.886,1.38-1.517
	c1.461-2.439,4.271-3.526,5.267-3.699c2.462-0.428,3.324,1.712,3.456,1.843c0.051,0.049-2.446-1.171-2.469,1.104
	c0,0-0.266,1.885,3.459,2.662c-0.01-0.002,0.703,0.172,1.636-0.323C27.15,11.844,19.398,19.56,19.398,19.56L19.398,19.56z"/>
</svg>
