<?xml version="1.0" encoding="utf-8"?>
<!-- Generator: Adobe Illustrator 17.0.0, SVG Export Plug-In . SVG Version: 6.00 Build 0)  -->
<!DOCTYPE svg PUBLIC "-//W3C//DTD SVG 1.1//EN" "http://www.w3.org/Graphics/SVG/1.1/DTD/svg11.dtd">
<svg version="1.1" id="Layer_1" xmlns="http://www.w3.org/2000/svg" xmlns:xlink="http://www.w3.org/1999/xlink" x="0px" y="0px"
	 width="111px" height="33px" viewBox="0 0 111 33" enable-background="new 0 0 111 33" xml:space="preserve">
<rect x="1" y="1" opacity="0.65" fill="#5D5D5D" width="110" height="32"/>
<rect fill="#CA2027" width="110" height="32"/>
<g>
	<path fill="#FFFFFF" d="M33.641,12.815c0.864,0,1.694-0.72,1.838-1.607c0.171-0.864-0.415-1.584-1.279-1.584
		c-0.864,0-1.693,0.72-1.84,1.584C32.192,12.096,32.753,12.815,33.641,12.815z"/>
	<path fill="#FFFFFF" d="M92.299,15.384c0,0,1.897,0,1.934,0c0.265,0,0.42-0.108,0.48-0.355c0.085-0.356,0.241-0.977,0.285-1.147
		c0.057-0.223-0.072-0.391-0.319-0.391c-0.059,0-0.968,0-1.908,0c0.137-0.547,0.673-2.322,0.673-3.48
		c0-2.311-1.963-4.278-4.748-4.278c-3.145,0-5.191,2.111-5.191,5.081c0,0.866,0.323,1.876,0.724,2.503
		c-0.167-0.01-0.34-0.015-0.518-0.015c-2.39,0-3.895,1.296-3.895,3.183c0,1.77,1.396,2.458,2.71,2.916
		c1.167,0.407,2.242,0.596,2.242,1.508c0,0.615-0.591,0.975-1.749,0.975c-1.373,0-2.128-0.647-2.32-0.892
		c0.13-0.102,0.324-0.346,0.324-0.751c0-0.567-0.398-1.03-1.139-1.03c-0.626,0-1.156,0.511-1.288,1.183
		c-1.006,0.823-2.103,1.356-3.66,1.356c-1.533,0-2.328-0.797-2.328-2.494c0.359,0.109,1.295,0.241,1.914,0.241
		c2.595,0,4.364-1.179,4.364-3.541c0-1.27-1.115-2.604-3.32-2.604h-0.005c-2.901,0-4.526,1.838-5.235,3.859
		c-0.199-0.048-0.398-0.095-0.597-0.139c0.159-0.449,0.273-0.968,0.273-1.544c0-0.998-0.618-2.175-2.272-2.175
		c-1.152,0-2.245,0.755-3.003,1.886c0.188-0.738,0.313-1.229,0.322-1.262c0.049-0.193-0.031-0.408-0.332-0.408
		c-0.387,0-1.698,0-1.698,0c-0.242,0-0.413,0.085-0.482,0.361c-0.046,0.184-0.629,2.473-1.197,4.701
		c-0.358,1.39-2.208,3.119-4.534,3.119c-1.533,0-2.328-0.85-2.328-2.547c0.401,0.16,1.295,0.294,1.913,0.294
		c2.701,0,4.364-1.179,4.364-3.541c0-1.27-1.115-2.604-3.321-2.604h-0.005c-3.267,0-5.267,2.537-5.607,5.414
		c-0.141,1.196-1.15,2.838-2.244,2.838c-0.533,0-0.83-0.335-0.83-0.903c0-0.491,0.346-1.691,0.724-3.196
		c0.127-0.503,0.32-1.271,0.533-2.122c0.964,0,1.739,0,1.776,0c0.264,0,0.419-0.108,0.48-0.355c0.085-0.356,0.241-0.977,0.285-1.147
		c0.057-0.223-0.072-0.391-0.319-0.391c-0.058,0-1.746,0-1.746,0s0.804-3.208,0.823-3.29c0.077-0.326-0.195-0.514-0.481-0.454
		c0,0-1.35,0.264-1.6,0.316c-0.252,0.051-0.447,0.189-0.538,0.552c-0.012,0.046-0.715,2.876-0.715,2.876s-1.37,0-1.402,0
		c-0.264,0-0.42,0.108-0.479,0.355C46,14.201,45.843,14.822,45.8,14.992c-0.058,0.223,0.071,0.391,0.319,0.391
		c0.05,0,0.627,0,1.375,0c-0.01,0.039-0.497,1.892-0.89,3.55c-0.186,0.798-0.806,2.664-1.823,2.664
		c-0.607,0-0.864-0.306-0.864-0.963c0-1.035,1.019-3.626,1.019-4.801c0-1.57-0.842-2.48-2.568-2.48
		c-1.088,0-2.216,0.702-2.694,1.319c0,0,0.145-0.505,0.195-0.699c0.053-0.205-0.057-0.406-0.326-0.406c-0.386,0-1.321,0-1.687,0
		c-0.359,0-0.458,0.192-0.511,0.403c-0.021,0.085-0.629,2.473-1.213,4.764c-0.399,1.57-1.369,2.881-2.407,2.881
		c-0.533,0-0.771-0.335-0.771-0.903c0-0.491,0.317-1.703,0.696-3.207c0.461-1.831,0.867-3.339,0.911-3.515
		c0.057-0.226-0.044-0.423-0.335-0.423c-0.365,0-1.312,0-1.698,0c-0.307,0-0.417,0.161-0.482,0.386c0,0-0.478,1.809-0.984,3.822
		c-0.367,1.461-0.773,2.95-0.773,3.649c0,1.248,0.56,2.189,2.101,2.189c1.189,0,2.13-0.603,2.848-1.371
		c-0.106,0.416-0.173,0.679-0.18,0.706c-0.062,0.238,0.013,0.448,0.293,0.448c0.386,0,1.357,0,1.737,0
		c0.302,0,0.419-0.122,0.482-0.385c0.061-0.252,1.358-5.355,1.358-5.355c0.343-1.371,1.191-2.279,2.384-2.279
		c0.566,0,1.056,0.375,0.999,1.103c-0.063,0.801-1.029,3.678-1.029,4.941c0,0.956,0.354,2.193,2.154,2.193
		c1.227,0,2.13-0.588,2.786-1.347c0.24,0.805,0.877,1.347,2.046,1.347c1.942,0,3.112-1.152,3.8-2.308
		c0.57,1.344,1.907,2.308,3.867,2.308c1.997,0,3.543-0.842,4.639-1.987c-0.197,0.772-0.33,1.296-0.342,1.34
		c-0.062,0.241,0.043,0.431,0.326,0.431c0.378,0,1.556,0,1.719,0c0.235,0,0.403-0.12,0.464-0.367
		c0.03-0.121,0.279-1.081,0.629-2.445c0.671-2.61,1.75-5.319,3.37-5.319c0.572,0,0.806,0.32,0.806,0.823
		c0,0.237-0.069,0.442-0.128,0.552C66.632,16.485,66,16.873,66,17.711c0,0.546,0.575,1.043,1.351,1.043
		c0.593,0,1.083-0.145,1.474-0.409c0.365,0.075,0.757,0.161,1.152,0.251c-0.06,0.392-0.09,0.778-0.09,1.144
		c0,2.095,1.496,3.872,4.178,3.872c2.101,0,3.543-0.769,4.788-1.754c0.598,0.979,2.109,1.77,4.091,1.77
		c2.717,0,4.258-1.413,4.258-3.28c0-1.69-1.387-2.312-2.818-2.83c-1.163-0.42-2.133-0.649-2.133-1.471
		c0-0.674,0.53-0.982,1.44-0.982c0.59,0,1.033,0.127,1.269,0.193c0.235,0.587,0.72,1.237,1.548,1.237
		c0.701,0,1.016-0.554,1.016-1.065c0-1.453-2.421-1.606-2.421-4.723c0-1.938,1.097-3.537,3.368-3.537
		c1.578,0,2.609,1.001,2.609,2.616c0,1.332-0.808,3.703-0.808,3.703s-1.341,0-1.373,0c-0.264,0-0.419,0.108-0.479,0.355
		c-0.085,0.356-0.242,0.977-0.286,1.147c-0.058,0.223,0.072,0.391,0.319,0.391c0.05,0,1.34,0,1.34,0s-1.386,5.111-1.386,6.04
		c0,1.248,0.703,2.188,2.244,2.188c2.18,0,3.542-1.416,4.134-3.476c0.046-0.159-0.044-0.289-0.206-0.289c-0.279,0-0.704,0-0.832,0
		c-0.166,0-0.262,0.095-0.304,0.257c-0.188,0.731-0.653,1.5-1.57,1.5c-0.533,0-0.83-0.335-0.83-0.903
		c0-0.491,0.325-1.64,0.725-3.196C91.959,16.765,92.299,15.384,92.299,15.384z M75.112,15.296c0.771,0,1.137,0.513,1.137,1.124
		c0,1.034-0.802,1.664-2.056,1.664c-0.449,0-1.076-0.106-1.446-0.23C72.903,16.904,73.591,15.296,75.112,15.296z M56.98,15.296
		c0.844,0,1.137,0.513,1.137,1.124c0,1.034-0.801,1.664-2.055,1.664c-0.449,0-1.076-0.106-1.447-0.23
		C54.77,16.904,55.38,15.296,56.98,15.296z"/>
	<path fill="#FFFFFF" d="M23.624,5.711c-5.5,0-8.273,3.943-8.273,7.232c0,1.991,0.754,3.762,2.371,4.423
		c0.265,0.108,0.503,0.004,0.58-0.29c0.053-0.203,0.18-0.716,0.236-0.929c0.077-0.29,0.047-0.392-0.166-0.645
		c-0.466-0.55-0.764-1.262-0.764-2.27c0-2.926,2.189-5.544,5.7-5.544c3.109,0,4.817,1.9,4.817,4.436c0,3.338-1.477,6.155-3.67,6.155
		c-1.211,0-2.118-1.001-1.827-2.23c0.348-1.467,1.022-3.049,1.022-4.108c0-0.948-0.509-1.738-1.561-1.738
		c-1.238,0-2.232,1.281-2.232,2.996c0,1.093,0.369,1.832,0.369,1.832s-1.267,5.368-1.489,6.308
		c-0.442,1.872-0.066,4.167-0.035,4.399c0.019,0.137,0.195,0.17,0.275,0.066c0.114-0.149,1.589-1.969,2.09-3.788
		c0.142-0.515,0.814-3.182,0.814-3.182c0.402,0.767,1.578,1.443,2.828,1.443c3.721,0,6.246-3.393,6.246-7.934
		C30.953,8.909,28.044,5.711,23.624,5.711z"/>
</g>
</svg>
