<?xml version="1.0" encoding="utf-8"?>
<!-- Generator: Adobe Illustrator 17.0.0, SVG Export Plug-In . SVG Version: 6.00 Build 0)  -->
<!DOCTYPE svg PUBLIC "-//W3C//DTD SVG 1.1//EN" "http://www.w3.org/Graphics/SVG/1.1/DTD/svg11.dtd">
<svg version="1.1" id="Layer_1" xmlns="http://www.w3.org/2000/svg" xmlns:xlink="http://www.w3.org/1999/xlink" x="0px" y="0px"
	 width="220.425px" height="230.379px" viewBox="0 0 220.425 230.379" enable-background="new 0 0 220.425 230.379"
	 xml:space="preserve">
<g>
	<g>
		<g>
			<path fill="#FFFFFF" d="M52.125,16.296C23.591,16.296,0,39.427,0,67.962c0,28.535,22.76,51.666,51.295,51.666
				c12.953,0,24.179-4.777,33.479-12.652v28.807h18.6V67.962C103.374,39.427,80.66,16.296,52.125,16.296z M51.207,101.812
				c-18.695,0-33.85-15.155-33.85-33.85s15.155-33.85,33.85-33.85c18.695,0,33.85,15.155,33.85,33.85S69.902,101.812,51.207,101.812
				z"/>
		</g>
		<g>
			<path fill="#FFFFFF" d="M168.39,119.58c28.534,0,52.034-23.132,52.034-51.666c0-28.535-23.088-51.666-51.623-51.666
				c-12.953,0-23.577,4.777-33.807,12.652V0h-17.67v67.914C117.324,96.449,139.856,119.58,168.39,119.58z M169.126,34.064
				c18.695,0,33.85,15.155,33.85,33.85s-15.155,33.85-33.85,33.85c-18.695,0-33.85-15.155-33.85-33.85
				S150.431,34.064,169.126,34.064z"/>
		</g>
	</g>
	<g>
		<g>
			<path fill="#FFFFFF" d="M123.358,197.109c-2.374,9.343-10.722,16.618-21.597,16.618c-13.326,0-22.517-10.339-22.517-22.363
				c0-12.407,9.574-22.288,22.135-22.288c10.569,0,19.529,6.663,21.98,16.926h-10.262c-1.761-4.442-5.822-7.582-11.335-7.582
				c-3.676-0.077-6.51,1.225-8.961,3.599c-2.145,2.297-3.447,5.668-3.447,9.344c0,7.582,5.284,12.943,12.407,12.943
				c6.28,0,9.803-3.754,11.335-7.199H123.358z"/>
		</g>
		<path fill="#FFFFFF" d="M74.538,191.476c0-0.012,0-0.025,0-0.037c0-0.008,0-0.016,0-0.023c0-0.023-0.15-0.044-0.15-0.067
			c0.004-0.702-0.038-1.394,0.014-2.081c-2.565-1.555-5.782-2.434-8.856-3.273c-3.988-1.15-7.073-2.607-7.151-5.292
			c0-2.07,1.602-4.033,4.976-4.033c3.91,0,5.051,2.708,5.128,4.708h7.899c0.418-2,0.897-2.286,1.425-3.206
			c-2.118-7.585-9.332-9.723-14.385-9.723c-8.129,0-15.107,5.093-15.107,13.375c0.077,6.058,4.678,9.179,10.353,10.943
			c7.745,2.685,10.889,3.669,10.889,7.274c0.078,2.836-2.608,5.346-5.751,5.346c-1.917,0-5.828-1.007-6.211-5.007H47.564
			c0.768,9,9.586,13.13,16.105,13.13c6.317,0,11.991-3.051,14.563-7.856C75.784,201.573,74.538,196.664,74.538,191.476z"/>
		<path fill="#FFFFFF" d="M42.763,201.273l-0.092-0.894h-4.923c-1.917,3-5.215,5.553-10.123,5.553
			c-5.751,0.076-11.732-3.553-12.192-10.553h33.894c0.048-1,0.168-1.101,0.197-1.345c-4.707-3.706-5.986-8.548-5.986-12.174v-0.03
			v-0.031c0-1.8,0.194-3.515,0.681-5.134c-0.326-0.391-0.703-0.787-1.063-1.158c-3.911-4.064-9.452-6.454-15.741-6.454
			c-12.73,0-22.095,10.499-22.095,22.462c0,11.734,9.273,22.236,22.232,22.236c4.372,0,8.509-1.228,12.037-3.682
			c1.552-1.046,2.99-2.223,4.295-3.715C43.303,204.787,42.914,203.165,42.763,201.273z M27.472,177.87
			c7.362-0.075,11.579,4.51,11.962,9.51H15.585C15.969,182.379,20.034,177.87,27.472,177.87z"/>
		<g>
			<path fill="#FFFFFF" d="M204.538,155.379v14.038v6.168c-1-2.467-5.922-6.785-14.017-6.785c-7.807,0-14.741,4.026-18.44,10.911
				c2.173,4.821,3.096,10.159,2.491,14.85c0,0-0.231,3.774-2.31,8.389c3.51,6.454,10.157,10.801,18.671,10.801
				c8.635,0,12.605-4.241,14.605-7.402v6.03h10v-57H204.538z M201.87,200.412c-2.39,2.39-5.692,3.855-9.393,3.855
				c-7.787,0-12.939-5.86-12.939-13.03v-0.077c0-6.631,4.767-12.953,13.016-12.953c3.624,0,6.855,1.388,9.168,3.701
				c2.313,2.236,3.774,5.397,3.774,9.098C205.651,194.707,204.26,198.022,201.87,200.412z"/>
		</g>
		<g>
			<path fill="#FFFFFF" d="M148.38,168.216c-7.11,0-12.842,3.282-14.842,7.579v-6.416h-10v4.874c4,4.8,5.593,10.688,5.593,16.901
				c0,6.426-2.593,12.275-5.593,16.927v22.298h10v-17.938v-5.704c2,2.734,6.247,7.032,14.608,7.032
				c12.58,0,21.409-10.236,21.409-22.425C169.555,180.953,163.382,168.216,148.38,168.216z M159.538,191.032
				c0,7.032-5.424,13.205-13.237,13.205c-3.672,0-7.049-1.485-9.393-3.829c-2.344-2.344-3.798-5.626-3.798-9.298
				c0-3.751,1.382-7.11,3.649-9.454c2.344-2.422,5.725-3.907,9.476-3.907c8.673,0,13.304,7.032,13.304,13.205V191.032z"/>
		</g>
	</g>
</g>
</svg>
