<?xml version="1.0" encoding="utf-8"?>
<!-- Generator: Adobe Illustrator 16.0.0, SVG Export Plug-In . SVG Version: 6.00 Build 0)  -->
<!DOCTYPE svg PUBLIC "-//W3C//DTD SVG 1.1//EN" "http://www.w3.org/Graphics/SVG/1.1/DTD/svg11.dtd">
<svg version="1.1" id="Layer_1" xmlns="http://www.w3.org/2000/svg" xmlns:xlink="http://www.w3.org/1999/xlink" x="0px" y="0px"
	 width="27.539px" height="27.529px" viewBox="0 0 27.539 27.529" enable-background="new 0 0 27.539 27.529" xml:space="preserve">
<g>
	<path fill="#FFFFFF" d="M19.727,16.318l-1.971,0.51c1.62-1.786,2.616-4.153,2.616-6.755C20.372,4.509,15.863,0,10.299,0
		C4.737,0,0.227,4.509,0.227,10.073c0,5.561,4.511,10.072,10.073,10.072c2.437,0,4.673-0.867,6.417-2.309l-0.546,2.039l7.379,6.96
		l3.557-3.555L19.727,16.318z M10.299,17.473c-4.088,0-7.403-3.312-7.403-7.401c0-4.088,3.315-7.402,7.403-7.402
		c4.087,0,7.401,3.314,7.401,7.402C17.7,14.161,14.387,17.473,10.299,17.473z"/>
</g>
</svg>
