<?xml version="1.0" encoding="utf-8"?>
<!-- Generator: Adobe Illustrator 17.0.0, SVG Export Plug-In . SVG Version: 6.00 Build 0)  -->
<!DOCTYPE svg PUBLIC "-//W3C//DTD SVG 1.1//EN" "http://www.w3.org/Graphics/SVG/1.1/DTD/svg11.dtd">
<svg version="1.1" id="Layer_1" xmlns="http://www.w3.org/2000/svg" xmlns:xlink="http://www.w3.org/1999/xlink" x="0px" y="0px"
	 width="111px" height="33px" viewBox="0 0 111 33" enable-background="new 0 0 111 33" xml:space="preserve">
<rect x="1" y="1" opacity="0.65" fill="#5D5D5D" width="110" height="32"/>
<rect fill="#50CDFA" width="110" height="32"/>
<path fill="#5D5D5D" d="M66.141,9.034c-0.37,0.217-1.482,0.651-2.519,0.759c0.665-0.381,1.649-1.629,1.892-2.62
	c-0.639,0.434-2.107,1.066-2.832,1.066c0,0,0,0.002,0.001,0.003c-0.827-0.919-1.99-1.492-3.282-1.492
	c-2.506,0-4.539,2.16-4.539,4.824c0,0.37,0.042,0.73,0.117,1.075h-0.001c-3.4-0.093-7.374-1.904-9.614-5.004
	c-1.375,2.532-0.185,5.347,1.376,6.373c-0.533,0.044-1.519-0.064-1.982-0.543c-0.032,1.68,0.729,3.906,3.5,4.713
	c-0.534,0.307-1.477,0.219-1.889,0.153c0.145,1.42,2.014,3.275,4.056,3.275c-0.728,0.894-3.212,2.52-6.285,2.001
	c2.088,1.352,4.522,2.134,7.099,2.134c7.322,0,13.009-6.307,12.703-14.089c0-0.009-0.003-0.018-0.003-0.025
	c0-0.022,0.003-0.043,0.003-0.062c0-0.025-0.003-0.047-0.003-0.073C64.606,11.019,65.501,10.163,66.141,9.034z"/>
<path fill="#FFFFFF" d="M65.141,8.034c-0.37,0.217-1.482,0.651-2.519,0.759c0.665-0.381,1.649-1.629,1.892-2.62
	c-0.639,0.434-2.107,1.066-2.832,1.066c0,0,0,0.002,0.001,0.003c-0.827-0.919-1.99-1.491-3.282-1.491
	c-2.506,0-4.539,2.16-4.539,4.824c0,0.37,0.042,0.73,0.117,1.075h-0.001c-3.4-0.093-7.374-1.904-9.614-5.004
	c-1.375,2.532-0.185,5.347,1.376,6.373c-0.533,0.044-1.519-0.064-1.982-0.543c-0.032,1.68,0.729,3.906,3.5,4.713
	c-0.534,0.307-1.477,0.219-1.889,0.153c0.145,1.42,2.014,3.275,4.056,3.275c-0.728,0.894-3.212,2.52-6.285,2.001
	c2.088,1.352,4.522,2.134,7.099,2.134c7.322,0,13.009-6.307,12.703-14.089c0-0.009-0.003-0.018-0.003-0.025
	c0-0.022,0.003-0.043,0.003-0.062c0-0.025-0.003-0.047-0.003-0.073C63.606,10.019,64.501,9.163,65.141,8.034z"/>
</svg>
