<?xml version="1.0" encoding="utf-8"?>
<!-- Generator: Adobe Illustrator 15.0.0, SVG Export Plug-In . SVG Version: 6.00 Build 0)  -->
<!DOCTYPE svg PUBLIC "-//W3C//DTD SVG 1.1//EN" "http://www.w3.org/Graphics/SVG/1.1/DTD/svg11.dtd">
<svg version="1.1" id="Layer_1" xmlns="http://www.w3.org/2000/svg" xmlns:xlink="http://www.w3.org/1999/xlink" x="0px" y="0px"
	 width="430px" height="137px" viewBox="0 0 430 137" enable-background="new 0 0 430 137" xml:space="preserve">
<g>
	<path fill="#FFFFFF" d="M231.545,105.979L217.729,92.22V78.168c-3.691,6.748-11.391,10.124-19.511,10.124
		c-18.559,0-29.421-14.448-29.421-30.794c0-18.244,13.182-30.689,29.421-30.689c10.548,0,16.98,5.59,19.511,10.23v-8.438h13.815
		V105.979z M182.611,57.813c0,7.171,5.168,17.612,17.612,17.612c7.699,0,12.761-4.008,15.397-9.281
		c1.37-2.529,2.004-5.271,2.215-8.119c0.105-2.741-0.423-5.59-1.582-8.121c-2.426-5.484-7.804-10.229-16.135-10.229
		c-11.18,0-17.507,9.068-17.507,18.031V57.813z"/>
	<g>
		<path fill="#FFFFFF" d="M231.545,105.979L217.729,92.22V78.168c-3.691,6.748-11.391,10.124-19.511,10.124
			c-18.559,0-29.421-14.448-29.421-30.794c0-18.244,13.182-30.689,29.421-30.689c10.548,0,16.98,5.59,19.511,10.23v-8.438h13.815
			V105.979z M182.611,57.813c0,7.171,5.168,17.612,17.612,17.612c7.699,0,12.761-4.008,15.397-9.281
			c1.37-2.529,2.004-5.271,2.215-8.119c0.105-2.741-0.423-5.59-1.582-8.121c-2.426-5.484-7.804-10.229-16.135-10.229
			c-11.18,0-17.507,9.068-17.507,18.031V57.813z"/>
	</g>
	<path fill="#FFFFFF" d="M162.905,65h-6.24c-2.11,6-6.961,10.117-15.609,10.117c-9.807,0-17.084-7.281-17.084-17.721
		c0-5.062,1.794-9.652,4.747-12.816c3.375-3.268,7.277-4.594,12.338-4.488c7.594,0,13.183,3.908,15.609,10.908h6.052
		c0.624-4,1.777-7.575,3.392-10.875c-5.651-8.051-15.026-13.096-25.579-13.096c-17.296,0-30.479,13.495-30.479,30.579
		c0,16.557,12.655,30.74,31.005,30.74c10.786,0,19.749-5.438,25.15-13.156C164.679,72.076,163.569,69,162.905,65z"/>
	<path fill="#FFFFFF" d="M103,57.664c0-0.018,0-0.034,0-0.051c0-0.012,0-0.022,0-0.033c0-0.03,0.217-0.061,0.217-0.092
		c0.005-0.965,0.159-1.917,0.231-2.861c-3.528-2.139-7.845-3.348-12.073-4.5c-5.485-1.583-9.675-3.585-9.781-7.278
		c0-2.846,2.23-5.935,6.871-5.935c5.377,0,6.973,3.086,7.078,6.086h10.864c0.575-2,1.234-2.754,1.959-4.02
		c-2.913-10.431-12.833-13.177-19.783-13.177c-11.179,0-20.776,7.101-20.776,18.491c0.106,8.332,6.434,12.671,14.237,15.097
		c10.651,3.692,14.975,5.069,14.975,10.027c0.106,3.9-3.586,6.91-7.91,6.91c-2.636,0-8.014-1.328-8.542-7.328H66.751
		c1.056,14,13.183,18.511,22.148,18.511c8.688,0,16.067-3.969,19.604-10.576C105.137,71.322,103,64.798,103,57.664z"/>
	<path fill="#FFFFFF" d="M60.148,70.684L60.021,69h-6.771c-2.636,4-7.171,8.074-13.921,8.074C31.421,77.18,23.195,72,22.563,63
		h46.612c0.066-1,0.124-1.498,0.165-1.834C62.867,56.068,61,49.425,61,44.439v-0.042v-0.042c0-2.475,0.373-4.833,1.044-7.06
		c-0.448-0.538-0.912-1.082-1.408-1.592c-5.378-5.589-12.973-8.876-21.621-8.876c-17.506,0-30.372,14.439-30.372,30.89
		c0,16.137,12.76,30.579,30.582,30.579c6.012,0,11.706-1.688,16.557-5.063c2.135-1.438,4.114-3.285,5.909-5.336
		C60.889,75.742,60.356,73.285,60.148,70.684z M39.12,38.922C49.245,38.818,55.044,45,55.571,52H22.772
		C23.3,45,28.89,38.922,39.12,38.922z"/>
	<path fill="#FFFFFF" d="M238.044,28.419h13.217v8.596c4.19-5.91,11.068-10.423,20.846-10.423c20.632,0,29.335,17.515,29.335,31.806
		c0,16.763-11.927,30.84-29.228,30.84c-11.497,0-17.729-5.91-20.094-9.672v7.845v38.693l-14.076-14.136V28.419z M287.365,57.861
		c0-8.489-6.124-18.16-18.052-18.16c-5.158,0-9.563,2.042-12.787,5.373c-3.117,3.224-5.051,7.844-5.051,13.002
		c0,5.051,1.934,9.562,5.158,12.787c3.224,3.224,7.736,5.266,12.787,5.266c10.745,0,17.944-8.49,17.944-18.16V57.861z"/>
	<g>
		<path fill="#FFFFFF" d="M354.01,35.33c-5.408-5.619-13.042-8.934-21.736-8.934c-12.323,0-22.353,7.11-27.263,17.058
			c1.762,4.702,2.714,9.82,2.714,14.953c0,4.73-0.814,9.305-2.358,13.547c5.025,9.46,14.884,16.232,27.119,16.232
			c6.044,0,11.77-1.928,16.646-5.321C354.01,79.577,358.145,75,360.901,68h-14.313c-2.651,5-7.211,8.133-13.996,8.133
			C324.639,76.239,316.368,71,315.732,62h46.865C363.765,52,361.113,42.646,354.01,35.33z M315.944,51
			c0.53-5,6.149-13.148,16.435-13.148C342.559,37.746,348.39,46,348.92,51H315.944z"/>
	</g>
	<g>
		<path fill="#FFFFFF" d="M411,8v19.216v8.482c-2-3.393-8.393-9.331-19.525-9.331c-10.736,0-20.396,5.537-25.484,15.005
			c2.988,6.629,4.194,13.97,3.362,20.421c0,0-0.348,5.19-3.207,11.536c4.827,8.876,14.015,14.854,25.724,14.854
			c11.875,0,17.131-5.832,20.131-10.18V87h13V8H411z M406.832,69.84c-3.287,3.287-7.888,5.302-12.978,5.302
			c-10.709,0-17.854-8.058-17.854-17.919v-0.105c0-9.12,6.615-17.814,17.961-17.814c4.983,0,9.457,1.909,12.639,5.09
			c3.181,3.075,5.205,7.421,5.205,12.511C412.018,61.994,410.119,66.553,406.832,69.84z"/>
		<path fill="#FFFFFF" d="M362.354,60.605c0.164-2.156,0.152-4.265-0.041-6.318c-0.073,0.96-0.119,1.936-0.119,2.936
			C362.193,58.365,362.25,59.493,362.354,60.605z"/>
	</g>
</g>
</svg>
