<?xml version="1.0" encoding="utf-8"?>
<!-- Generator: Adobe Illustrator 15.0.0, SVG Export Plug-In . SVG Version: 6.00 Build 0)  -->
<!DOCTYPE svg PUBLIC "-//W3C//DTD SVG 1.1//EN" "http://www.w3.org/Graphics/SVG/1.1/DTD/svg11.dtd">
<svg version="1.1" id="Layer_1" xmlns="http://www.w3.org/2000/svg" xmlns:xlink="http://www.w3.org/1999/xlink" x="0px" y="0px"
	 width="29.25px" height="29px" viewBox="0 0 29.25 29" enable-background="new 0 0 29.25 29" xml:space="preserve">
<path fill-rule="evenodd" clip-rule="evenodd" fill="#BE1E2D" d="M23.651,24.76H14.72c0,0-0.684-0.307-0.684-0.684V4.93
	c0-0.377,0.305-0.684,0.684-0.684l8.847-0.006c0.376,0,0.725,0.263,0.725,0.64v19.195C24.291,24.076,24.028,24.76,23.651,24.76
	L23.651,24.76z M16.771,5.614h-1.367v1.368h1.367V5.614L16.771,5.614z M16.771,7.665h-1.367v1.367h1.367V7.665L16.771,7.665z
	 M16.771,9.716h-1.367v1.369h1.367V9.716L16.771,9.716z M16.771,11.768h-1.367v1.369h1.367V11.768L16.771,11.768z M16.771,13.82
	h-1.367v1.367h1.367V13.82L16.771,13.82z M16.771,15.871h-1.367v1.368h1.367V15.871L16.771,15.871z M16.771,17.923h-1.367v1.367
	h1.367V17.923L16.771,17.923z M16.771,19.974h-1.367v1.367h1.367V19.974L16.771,19.974z M16.771,22.025h-1.367v1.367h1.367V22.025
	L16.771,22.025z M18.821,5.614h-1.367v1.368h1.367V5.614L18.821,5.614z M18.821,7.665h-1.367v1.367h1.367V7.665L18.821,7.665z
	 M18.821,9.716h-1.367v1.369h1.367V9.716L18.821,9.716z M18.821,11.768h-1.367v1.369h1.367V11.768L18.821,11.768z M18.821,13.82
	h-1.367v1.367h1.367V13.82L18.821,13.82z M18.821,15.871h-1.367v1.368h1.367V15.871L18.821,15.871z M18.821,17.923h-1.367v1.367
	h1.367V17.923L18.821,17.923z M18.821,19.974h-1.367v1.367h1.367V19.974L18.821,19.974z M20.873,5.614h-1.367v1.368h1.367V5.614
	L20.873,5.614z M20.873,7.665h-1.367v1.367h1.367V7.665L20.873,7.665z M20.873,9.716h-1.367v1.369h1.367V9.716L20.873,9.716z
	 M20.873,11.768h-1.367v1.369h1.367V11.768L20.873,11.768z M20.873,13.82h-1.367v1.367h1.367V13.82L20.873,13.82z M20.873,15.871
	h-1.367v1.368h1.367V15.871L20.873,15.871z M20.873,17.923h-1.367v1.367h1.367V17.923L20.873,17.923z M20.873,19.974h-1.367v1.367
	h1.367V19.974L20.873,19.974z M22.924,5.614h-1.367v1.368h1.367V5.614L22.924,5.614z M22.924,7.665h-1.367v1.367h1.367V7.665
	L22.924,7.665z M22.924,9.716h-1.367v1.369h1.367V9.716L22.924,9.716z M22.924,11.768h-1.367v1.369h1.367V11.768L22.924,11.768z
	 M22.924,13.82h-1.367v1.367h1.367V13.82L22.924,13.82z M22.924,15.871h-1.367v1.368h1.367V15.871L22.924,15.871z M22.924,17.923
	h-1.367v1.367h1.367V17.923L22.924,17.923z M22.924,19.974h-1.367v1.367h1.367V19.974L22.924,19.974z M22.924,22.025h-1.367v1.367
	h1.367V22.025L22.924,22.025z M12.482,24.76H5.644c-0.377,0-0.684-0.307-0.684-0.684V12.453c0-0.379,0.307-0.684,0.684-0.684h6.839
	c0.377,0,0.684,0.305,0.684,0.684v11.623C13.166,24.453,12.859,24.76,12.482,24.76L12.482,24.76z M7.694,13.137H6.327v2.051h1.367
	V13.137L7.694,13.137z M7.694,15.871H6.327v2.052h1.367V15.871L7.694,15.871z M7.694,18.606H6.327v2.051h1.367V18.606L7.694,18.606z
	 M7.694,21.341H6.327v2.052h1.367V21.341L7.694,21.341z M9.746,13.137H8.379v2.051h1.367V13.137L9.746,13.137z M9.746,15.871H8.379
	v2.052h1.367V15.871L9.746,15.871z M9.746,18.606H8.379v2.051h1.367V18.606L9.746,18.606z M11.797,13.137H10.43v2.051h1.367V13.137
	L11.797,13.137z M11.797,15.871H10.43v2.052h1.367V15.871L11.797,15.871z M11.797,18.606H10.43v2.051h1.367V18.606L11.797,18.606z
	 M11.797,21.341H10.43v2.052h1.367V21.341L11.797,21.341z"/>
</svg>
