<?xml version="1.0" encoding="utf-8"?>
<!-- Generator: Adobe Illustrator 15.0.0, SVG Export Plug-In . SVG Version: 6.00 Build 0)  -->
<!DOCTYPE svg PUBLIC "-//W3C//DTD SVG 1.1//EN" "http://www.w3.org/Graphics/SVG/1.1/DTD/svg11.dtd">
<svg version="1.1" id="Layer_1" xmlns="http://www.w3.org/2000/svg" xmlns:xlink="http://www.w3.org/1999/xlink" x="0px" y="0px"
	 width="29.25px" height="29px" viewBox="0 0 29.25 29" enable-background="new 0 0 29.25 29" xml:space="preserve">
<path fill-rule="evenodd" clip-rule="evenodd" fill="#BE1E2D" d="M16.664,1.898c0.006-0.046,3.062,2.719,3.081,2.757
	c-0.019-0.01-1.109,2.159-1.109,2.159c0.002,0.03-0.379,3.172-0.386,3.178c-0.026,0.024-2.866,1.832-2.899,1.766
	c-0.024-0.048,0.046,2.815,0.039,2.812c-0.015-0.009-2.04,2.76-2.022,2.771l1.544,1.927c-0.026,0.008-0.467,1.646-0.487,1.639
	c-0.042-0.016,0.958,1.034,0.937,1.03c-0.031-0.009-0.028,3.698-0.019,3.713c0.042,0.06-10.764-11.15-10.764-11.064
	C4.578,14.584,16.657,1.944,16.664,1.898L16.664,1.898z"/>
<path fill-rule="evenodd" clip-rule="evenodd" fill="#BE1E2D" d="M19.729,12.843c0.051,0,0.962,0.941,0.962,0.961
	c0,0.034-0.957,0.962-0.962,0.962c-0.004,0-0.961-0.912-0.961-0.962C18.769,13.784,19.726,12.843,19.729,12.843L19.729,12.843z"/>
<path fill-rule="evenodd" clip-rule="evenodd" fill="#BE1E2D" d="M18.659,11.352c0.029,0,0.546,0.537,0.546,0.549
	c0,0.018-0.543,0.546-0.546,0.546c-0.002,0-0.547-0.52-0.547-0.546C18.112,11.889,18.657,11.352,18.659,11.352L18.659,11.352z"/>
</svg>
