<?xml version="1.0" encoding="utf-8"?>
<!-- Generator: Adobe Illustrator 17.0.0, SVG Export Plug-In . SVG Version: 6.00 Build 0)  -->
<!DOCTYPE svg PUBLIC "-//W3C//DTD SVG 1.1//EN" "http://www.w3.org/Graphics/SVG/1.1/DTD/svg11.dtd">
<svg version="1.1" id="Layer_1" xmlns="http://www.w3.org/2000/svg" xmlns:xlink="http://www.w3.org/1999/xlink" x="0px" y="0px"
	 width="224.135px" height="231.035px" viewBox="0 -0.656 224.135 231.035" enable-background="new 0 -0.656 224.135 231.035"
	 xml:space="preserve">
<g>
	<g>
		<path fill="#FFFFFF" d="M54.342,15.639c-28.534,0-52.125,23.132-52.125,51.666c0,28.535,22.76,51.666,51.295,51.666
			c12.953,0,24.179-4.777,33.479-12.652v28.807h18.6V67.306C105.591,38.771,82.876,15.639,54.342,15.639z M53.423,101.156
			c-18.695,0-33.85-15.155-33.85-33.85s15.155-33.85,33.85-33.85c18.695,0,33.85,15.155,33.85,33.85S72.118,101.156,53.423,101.156z
			"/>
	</g>
	<g>
		<path fill="#FFFFFF" d="M170.607,118.924c28.534,0,52.034-23.132,52.034-51.666c0-28.535-23.088-51.666-51.623-51.666
			c-12.953,0-23.577,4.777-33.807,12.652v-28.9h-17.67v67.914C119.541,95.792,142.072,118.924,170.607,118.924z M171.343,33.408
			c18.695,0,33.85,15.155,33.85,33.85s-15.155,33.85-33.85,33.85c-18.695,0-33.85-15.155-33.85-33.85S152.648,33.408,171.343,33.408
			z"/>
	</g>
</g>
<g>
	<path fill="#FFFFFF" d="M0.722,195.762h19.173v3.002H4.063v12.394H16.99v3.002H4.063v12.637h16.703v3.002H0.722V195.762z"/>
	<path fill="#FFFFFF" d="M47.196,223.455c0,0,3.534,3.729,8.908,3.729c3.729,0,6.778-2.228,6.778-5.907
		c0-8.569-16.994-6.391-16.994-16.945c0-4.89,4.309-9.15,10.604-9.15c5.906,0,9.102,3.292,9.102,3.292l-1.646,2.809
		c0,0-3.002-2.905-7.456-2.905c-4.357,0-7.166,2.856-7.166,5.858c0,8.085,16.994,5.762,16.994,16.945
		c0,5.084-3.922,9.199-10.313,9.199c-6.972,0-10.797-4.357-10.797-4.357L47.196,223.455z"/>
	<path fill="#FFFFFF" d="M107.952,195.181c8.134,0,12.249,4.405,12.249,4.405l-1.791,2.47c0,0-3.971-3.776-10.361-3.776
		c-7.988,0-13.702,6.197-13.702,14.234c0,8.134,5.714,14.767,13.799,14.767c6.875,0,11.039-4.551,11.039-4.551l1.937,2.372
		c0,0-4.647,5.277-13.023,5.277c-10.071,0-17.236-7.892-17.236-17.817C90.861,202.685,98.22,195.181,107.952,195.181z"/>
	<path fill="#FFFFFF" d="M147.742,195.762h11.765c6.101,0,10.507,3.97,10.507,10.264c0,6.343-4.406,10.409-10.507,10.409h-8.424
		v13.363h-3.341V195.762z M159.071,213.434c4.552,0,7.505-2.76,7.505-7.408c0-4.6-2.953-7.262-7.456-7.262h-8.037v14.67H159.071z"/>
	<path fill="#FFFFFF" d="M196.054,195.762h10.99c10.216,0,17.091,6.245,17.091,16.993c0,10.846-6.875,17.043-17.091,17.043h-10.99
		V195.762z M206.706,226.796c8.376,0,13.944-4.938,13.944-14.041c0-9.053-5.616-13.991-13.944-13.991h-7.311v28.032H206.706z"/>
</g>
</svg>
