<?xml version="1.0" encoding="utf-8"?>
<!-- Generator: Adobe Illustrator 17.0.0, SVG Export Plug-In . SVG Version: 6.00 Build 0)  -->
<!DOCTYPE svg PUBLIC "-//W3C//DTD SVG 1.1//EN" "http://www.w3.org/Graphics/SVG/1.1/DTD/svg11.dtd">
<svg version="1.1" id="Layer_1" xmlns="http://www.w3.org/2000/svg" xmlns:xlink="http://www.w3.org/1999/xlink" x="0px" y="0px"
	 width="111px" height="33px" viewBox="0 0 111 33" enable-background="new 0 0 111 33" xml:space="preserve">
<rect x="1" y="1" opacity="0.65" fill="#5D5D5D" width="110" height="32"/>
<rect fill="#435597" width="110" height="32"/>
<path fill="#FFFFFF" d="M57.113,16.202c-0.635,0-1.092,0.208-1.556,0.419v4.789c0.445,0.043,0.698,0.043,1.121,0.043
	c1.523,0,1.732-0.697,1.732-1.669v-2.288C58.41,16.779,58.172,16.202,57.113,16.202 M46.999,15.941
	c-1.057,0-1.298,0.579-1.298,1.297v0.403h2.594v-0.403C48.296,16.52,48.055,15.941,46.999,15.941 M27.407,20.927
	c0,0.567,0.268,0.862,0.86,0.862c0.635,0,1.011-0.207,1.474-0.419v-1.135h-1.388C27.695,20.234,27.407,20.356,27.407,20.927
	 M66.952,16.202c-1.058,0-1.425,0.577-1.425,1.294v2.621c0,0.72,0.367,1.298,1.425,1.298c1.055,0,1.425-0.578,1.425-1.298v-2.621
	C68.377,16.779,68.008,16.202,66.952,16.202 M22.22,23.865h-3.111v-7.52h-1.555v-2.592h1.555v-1.556
	c0-2.114,0.878-3.372,3.371-3.372h2.076v2.592h-1.297c-0.971,0-1.035,0.362-1.035,1.038l-0.004,1.297h2.352l-0.275,2.592H22.22
	V23.865z M32.853,23.884H30.26l-0.112-0.655c-1.184,0.655-2.241,0.761-2.938,0.761c-1.902,0-2.914-1.269-2.914-3.023
	c0-2.07,1.181-2.808,3.294-2.808h2.151v-0.447c0-1.057-0.121-1.367-1.748-1.367h-2.66l0.26-2.592H28.5
	c3.57,0,4.353,1.127,4.353,3.98V23.884z M41.671,16.535c-1.614-0.276-2.077-0.337-2.853-0.337c-1.395,0-1.816,0.308-1.816,1.49
	v2.238c0,1.183,0.421,1.491,1.816,1.491c0.776,0,1.239-0.061,2.853-0.339v2.527c-1.414,0.317-2.334,0.4-3.112,0.4
	c-3.341,0-4.668-1.754-4.668-4.289V17.9c0-2.536,1.327-4.294,4.668-4.294c0.778,0,1.699,0.084,3.112,0.401V16.535z M51.407,19.716
	h-5.705v0.209c0,1.183,0.422,1.491,1.816,1.491c1.254,0,2.019-0.061,3.629-0.339v2.527c-1.553,0.317-2.362,0.4-3.887,0.4
	c-3.341,0-4.669-1.754-4.669-4.289V17.64c0-2.217,0.986-4.034,4.409-4.034c3.423,0,4.407,1.795,4.407,4.034V19.716z M61.521,19.764
	c0,2.45-0.701,4.236-4.948,4.236c-1.532,0-2.433-0.135-4.126-0.395V9.603l3.11-0.518v4.897c0.672-0.25,1.542-0.376,2.334-0.376
	c3.111,0,3.629,1.393,3.629,3.631V19.764z M71.491,19.817c0,2.113-0.874,4.162-4.528,4.162c-3.657,0-4.547-2.049-4.547-4.162v-2.04
	c0-2.114,0.89-4.163,4.547-4.163c3.655,0,4.528,2.05,4.528,4.163V19.817z M81.454,19.817c0,2.113-0.874,4.162-4.528,4.162
	c-3.657,0-4.547-2.049-4.547-4.162v-2.04c0-2.114,0.89-4.163,4.547-4.163c3.653,0,4.528,2.05,4.528,4.163V19.817z M91.68,23.865
	h-3.372l-2.851-4.753v4.753h-3.111V9.603l3.111-0.518v9.181l2.851-4.514h3.372l-3.113,4.926L91.68,23.865z M76.915,16.202
	c-1.056,0-1.423,0.577-1.423,1.294v2.621c0,0.72,0.367,1.298,1.423,1.298c1.055,0,1.429-0.578,1.429-1.298v-2.621
	C78.344,16.779,77.97,16.202,76.915,16.202"/>
</svg>
