<?xml version="1.0" encoding="utf-8"?>
<!-- Generator: Adobe Illustrator 15.0.0, SVG Export Plug-In . SVG Version: 6.00 Build 0)  -->
<!DOCTYPE svg PUBLIC "-//W3C//DTD SVG 1.1//EN" "http://www.w3.org/Graphics/SVG/1.1/DTD/svg11.dtd">
<svg version="1.1" id="Layer_1" xmlns="http://www.w3.org/2000/svg" xmlns:xlink="http://www.w3.org/1999/xlink" x="0px" y="0px"
	 width="29.25px" height="29px" viewBox="0 0 29.25 29" enable-background="new 0 0 29.25 29" xml:space="preserve">
<path fill="#BE1E2D" d="M14.754,24.693c-0.369,0-0.668-0.299-0.668-0.668V4.976c0-0.37,0.299-0.669,0.668-0.669
	s0.669,0.299,0.669,0.669v19.049C15.423,24.395,15.123,24.693,14.754,24.693L14.754,24.693z M14.262,8.214
	c-0.32,0.184-0.729,0.074-0.914-0.246l-1.169-2.024c-0.187-0.32-0.076-0.729,0.244-0.913c0.319-0.186,0.729-0.076,0.913,0.244
	l1.17,2.025C14.689,7.62,14.58,8.029,14.262,8.214L14.262,8.214z M17.344,5.944l-1.169,2.024c-0.186,0.32-0.595,0.43-0.913,0.246
	c-0.32-0.186-0.43-0.595-0.246-0.915l1.17-2.025c0.184-0.32,0.594-0.43,0.914-0.244C17.419,5.214,17.529,5.624,17.344,5.944
	L17.344,5.944z M14.506,21.531l-1.17,2.025c-0.184,0.318-0.594,0.428-0.913,0.244c-0.32-0.186-0.431-0.592-0.244-0.912l1.169-2.027
	c0.186-0.318,0.594-0.43,0.914-0.244C14.58,20.801,14.689,21.211,14.506,21.531L14.506,21.531z M17.1,23.801
	c-0.32,0.184-0.73,0.074-0.914-0.244l-1.17-2.025c-0.184-0.32-0.074-0.73,0.246-0.914c0.318-0.186,0.728-0.074,0.913,0.244
	l1.169,2.027C17.529,23.209,17.419,23.615,17.1,23.801L17.1,23.801z M24.285,15.164H5.235c-0.369,0-0.668-0.3-0.668-0.67
	c0-0.369,0.299-0.668,0.668-0.668h19.05c0.369,0,0.668,0.299,0.668,0.668C24.953,14.864,24.654,15.164,24.285,15.164L24.285,15.164z
	 M23.985,13.076l-2.026,1.17c-0.318,0.184-0.728,0.076-0.913-0.244c-0.184-0.32-0.073-0.729,0.244-0.912l2.026-1.171
	c0.32-0.184,0.729-0.075,0.913,0.245C24.415,12.483,24.305,12.893,23.985,13.076L23.985,13.076z M24.229,16.84
	c-0.184,0.32-0.593,0.43-0.913,0.246l-2.026-1.17c-0.317-0.186-0.428-0.594-0.244-0.914c0.186-0.32,0.595-0.43,0.913-0.244
	l2.026,1.168C24.305,16.111,24.415,16.521,24.229,16.84L24.229,16.84z M8.643,14.002c-0.184,0.32-0.593,0.428-0.913,0.244
	l-2.026-1.17c-0.32-0.184-0.43-0.593-0.244-0.912c0.184-0.32,0.593-0.429,0.913-0.245l2.026,1.171
	C8.718,13.273,8.826,13.682,8.643,14.002L8.643,14.002z M8.398,15.916l-2.026,1.17c-0.32,0.184-0.729,0.074-0.913-0.246
	c-0.186-0.318-0.076-0.729,0.244-0.914l2.026-1.168c0.32-0.186,0.729-0.076,0.913,0.244S8.718,15.73,8.398,15.916L8.398,15.916z
	 M21.965,8.231l-13.47,13.47c-0.261,0.262-0.684,0.262-0.945,0c-0.262-0.262-0.262-0.684,0-0.945L21.02,7.285
	c0.262-0.26,0.686-0.26,0.945,0C22.226,7.546,22.226,7.97,21.965,8.231L21.965,8.231z M20.279,6.966l-0.606,2.26
	c-0.097,0.356-0.462,0.568-0.818,0.473c-0.358-0.097-0.567-0.462-0.474-0.818l0.606-2.262c0.095-0.356,0.462-0.568,0.817-0.472
	C20.162,6.243,20.373,6.61,20.279,6.966L20.279,6.966z M22.639,10.273l-2.26,0.606c-0.355,0.096-0.721-0.117-0.818-0.473
	c-0.094-0.356,0.116-0.724,0.475-0.819l2.259-0.606c0.356-0.095,0.724,0.116,0.818,0.474C23.207,9.811,22.996,10.177,22.639,10.273
	L22.639,10.273z M9.61,19.289l-2.26,0.605c-0.356,0.094-0.723-0.117-0.818-0.473c-0.097-0.357,0.115-0.725,0.472-0.818l2.259-0.607
	c0.358-0.094,0.724,0.115,0.82,0.475C10.179,18.826,9.966,19.193,9.61,19.289L9.61,19.289z M11.264,19.994l-0.605,2.26
	c-0.098,0.357-0.463,0.57-0.819,0.475c-0.358-0.096-0.568-0.463-0.473-0.818l0.606-2.26c0.095-0.357,0.461-0.568,0.818-0.475
	C11.146,19.273,11.358,19.639,11.264,19.994L11.264,19.994z M21.973,21.701c-0.262,0.262-0.685,0.262-0.945,0L7.557,8.231
	c-0.261-0.261-0.261-0.686,0-0.947c0.262-0.26,0.684-0.26,0.945,0l13.47,13.471C22.233,21.018,22.233,21.439,21.973,21.701
	L21.973,21.701z M23.11,19.543c-0.097,0.355-0.462,0.566-0.818,0.471l-2.261-0.605c-0.356-0.096-0.568-0.463-0.473-0.818
	s0.463-0.568,0.818-0.473l2.26,0.605C22.994,18.818,23.205,19.184,23.11,19.543L23.11,19.543z M19.804,22.848
	c-0.356,0.096-0.724-0.115-0.818-0.473l-0.606-2.26c-0.094-0.355,0.115-0.723,0.474-0.818c0.356-0.096,0.722,0.117,0.818,0.473
	l0.606,2.26C20.371,22.387,20.16,22.752,19.804,22.848L19.804,22.848z M10.788,9.819c-0.356,0.096-0.723-0.116-0.818-0.472
	L9.364,7.085C9.27,6.729,9.479,6.364,9.835,6.268c0.358-0.095,0.723,0.115,0.821,0.474L11.26,9
	C11.356,9.356,11.145,9.724,10.788,9.819L10.788,9.819z M10.082,10.525c-0.097,0.357-0.462,0.57-0.82,0.473l-2.259-0.605
	C6.646,10.298,6.434,9.93,6.531,9.574c0.095-0.356,0.462-0.568,0.818-0.472l2.259,0.604C9.964,9.804,10.177,10.169,10.082,10.525
	L10.082,10.525z"/>
</svg>
