<?xml version="1.0" encoding="utf-8"?>
<!-- Generator: Adobe Illustrator 15.0.0, SVG Export Plug-In . SVG Version: 6.00 Build 0)  -->
<!DOCTYPE svg PUBLIC "-//W3C//DTD SVG 1.1//EN" "http://www.w3.org/Graphics/SVG/1.1/DTD/svg11.dtd">
<svg version="1.1" id="Layer_1" xmlns="http://www.w3.org/2000/svg" xmlns:xlink="http://www.w3.org/1999/xlink" x="0px" y="0px"
	 width="29.25px" height="29px" viewBox="0 0 29.25 29" enable-background="new 0 0 29.25 29" xml:space="preserve">
<path fill-rule="evenodd" clip-rule="evenodd" fill="#BE1E2D" d="M2.654,11.135c-0.051-0.008,4.164,0.972,4.205,0.952
	c-0.011,0.019,2.387-0.431,2.387-0.431c0.034,0,2.091,0.459,2.097,0.465c0.027,0.03,2.548-0.335,2.474-0.299
	c-0.052,0.026,1.329-0.307,1.325-0.3c-0.009,0.016,3.062,0.909,3.075,0.889l2.14-0.357c0.006,0.03,1.826,0.518,1.816,0.541
	c-0.016,0.044,1.149-1.063,1.143-1.04c-0.007,0.034,4.107,0.032,4.122,0.021c0.066-0.047-12.375,11.947-12.281,11.947
	C15.156,23.523,2.704,11.142,2.654,11.135L2.654,11.135z"/>
<path fill-rule="evenodd" clip-rule="evenodd" fill="#BE1E2D" d="M13.296,10.607c-0.021,0.039-0.768,0.5-0.779,0.51
	c-0.021,0.013-1.184,0.191-1.197,0.188c-0.025-0.013-0.576-1.042-0.573-1.022c0.005,0.026-0.125-0.95-0.123-0.953
	c0.001-0.003,0.902-0.599,0.925-0.57c0.016,0.017,1.019-0.142,1.049-0.127c0.011,0.005,0.608,0.532,0.607,0.545
	C13.197,9.213,13.297,10.603,13.296,10.607L13.296,10.607z"/>
<path fill-rule="evenodd" clip-rule="evenodd" fill="#BE1E2D" d="M6.614,10.646c0-0.031,0.595-0.606,0.607-0.606
	c0.022,0,0.607,0.603,0.607,0.606s-0.575,0.607-0.607,0.607C7.209,11.254,6.614,10.649,6.614,10.646L6.614,10.646z"/>
<path fill-rule="evenodd" clip-rule="evenodd" fill="#BE1E2D" d="M27.02,10.009c0-0.056-1.046-1.067-1.067-1.067
	c-0.038,0-1.066,1.064-1.066,1.067c0,0.005,1.011,1.067,1.066,1.067C25.974,11.076,27.02,10.014,27.02,10.009L27.02,10.009z"/>
<path fill-rule="evenodd" clip-rule="evenodd" fill="#BE1E2D" d="M18.21,10.646c0-0.031-0.595-0.606-0.606-0.606
	c-0.022,0-0.606,0.603-0.606,0.606s0.574,0.607,0.606,0.607C17.615,11.254,18.21,10.649,18.21,10.646L18.21,10.646z"/>
<path fill-rule="evenodd" clip-rule="evenodd" fill="#BE1E2D" d="M22.616,11.198c0-0.032-0.596-0.607-0.608-0.607
	c-0.022,0-0.606,0.604-0.606,0.607c0,0.002,0.575,0.606,0.606,0.606C22.021,11.805,22.616,11.2,22.616,11.198L22.616,11.198z"/>
</svg>
